<svg xmlns="http://www.w3.org/2000/svg" xmlns:xlink="http://www.w3.org/1999/xlink" width="500" zoomAndPan="magnify" viewBox="0 0 375 374.999991" height="500" preserveAspectRatio="xMidYMid meet" version="1.0"><defs><clipPath id="355d930aa4"><path d="M 14.296875 122 L 133 122 L 133 225 L 14.296875 225 Z M 14.296875 122 " clip-rule="nonzero"/></clipPath><clipPath id="2f4b2f3b1d"><path d="M 171 122 L 360.796875 122 L 360.796875 347 L 171 347 Z M 171 122 " clip-rule="nonzero"/></clipPath></defs><g clip-path="url(#355d930aa4)"><path fill="#004aad" d="M 56.789062 122.949219 C 32.722656 127.050781 14.4375 148.132812 14.4375 173.136719 L 14.4375 224.25 L 132.53125 224.25 C 129.921875 203.355469 121.898438 183.390625 108.277344 167.160156 C 104.730469 162.871094 100.628906 158.949219 96.335938 155.21875 Z M 56.789062 122.949219 " fill-opacity="1" fill-rule="evenodd"/></g><path fill="#004aad" d="M 238.507812 76.117188 L 238.507812 51.121094 C 238.507812 23.136719 215.558594 0 187.386719 0 L 136.453125 0 L 136.453125 60.816406 C 142.238281 58.394531 148.769531 56.902344 155.484375 56.902344 C 181.417969 56.902344 202.6875 77.054688 204.179688 102.613281 C 215.183594 93.097656 226.566406 84.328125 238.507812 76.117188 Z M 238.507812 76.117188 " fill-opacity="1" fill-rule="evenodd"/><g clip-path="url(#2f4b2f3b1d)"><path fill="#6ca8da" d="M 187.386719 346.265625 L 238.507812 346.265625 L 238.507812 224.25 L 309.59375 224.25 C 337.574219 224.25 360.523438 201.300781 360.523438 173.128906 L 360.523438 122.199219 L 260.707031 122.199219 C 248.015625 138.613281 238.507812 157.453125 231.976562 180.21875 C 221.339844 217.15625 220.410156 256.523438 206.226562 292.34375 C 197.835938 313.425781 185.894531 330.21875 171.335938 343.648438 C 176.378906 345.335938 181.785156 346.265625 187.386719 346.265625 Z M 187.386719 346.265625 " fill-opacity="1" fill-rule="evenodd"/></g><path fill="#004aad" d="M 300.816406 62.308594 C 131.414062 172.386719 284.585938 323.136719 61.824219 375 C 169.46875 324.441406 174.324219 195.710938 107.714844 141.234375 L 172.828125 161.566406 C 172.828125 161.566406 219.472656 97.386719 300.816406 62.308594 Z M 300.816406 62.308594 " fill-opacity="1" fill-rule="evenodd"/><path fill="#6ca8da" d="M 155.484375 75 C 172.460938 75 186.261719 88.808594 186.261719 105.78125 C 186.261719 122.753906 172.453125 136.378906 155.484375 136.378906 C 138.511719 136.378906 124.882812 122.761719 124.882812 105.78125 C 124.882812 88.800781 138.503906 75 155.484375 75 Z M 155.484375 75 " fill-opacity="1" fill-rule="evenodd"/></svg>